# xmcd
#
# Track frame offsets: 
#        183
#        30808
#        53808
#
# Disc length: 1041 seconds
#
# Revision: 0
# Processed by: cddbd v1.5.2PL0 Copyright (c) Steve Scherf et al.
# Submitted via: ExactAudioCopyFreeDBPlugin 1.0
#
DISCID=16040f03
DTITLE=Bar-Kays - Struck By You [CDS)
DYEAR=1989
DGENRE=Funk
TTITLE0=Struck By You (12'')
TTITLE1=Your Place Or Mine
TTITLE2=Struck By You (Dub)
EXTD=
EXTT0=
EXTT1=
EXTT2=
PLAYORDER=
